<svg xmlns="http://www.w3.org/2000/svg" xmlns:xlink="http://www.w3.org/1999/xlink" width="377" height="479" viewBox="0 0 377 479"><defs><style>.a,.d{fill:#fff;}.a{stroke:#707070;}.b{clip-path:url(#a);}.c{fill:#3f3d56;}.e{fill:#e6e6e6;}</style><clipPath id="a"><rect class="a" width="377" height="479" transform="translate(10752 -12467.51)"/></clipPath></defs><g class="b" transform="translate(-10752 12467.51)"><g transform="translate(10759 -12468)"><path class="c" d="M948.228,244.82h-4V139.768c0-33.579-28.385-60.8-63.4-60.8H648.741c-35.015,0-63.4,27.221-63.4,60.8V716.091c0,33.579,28.385,60.8,63.4,60.8H880.827c35.015,0,63.4-27.221,63.4-60.8V319.6h4Z" transform="translate(-585.341 -78.969)"/><path class="d" d="M883.386,95.462H853.091a20.819,20.819,0,0,1-2.157,20.183,22.771,22.771,0,0,1-18.671,9.54H699.3a22.77,22.77,0,0,1-18.668-9.538,20.82,20.82,0,0,1-2.159-20.182h-28.3c-26.15,0-47.348,20.329-47.348,45.406V716.344c0,25.077,21.2,45.406,47.348,45.406h233.2c26.15,0,47.348-20.329,47.348-45.406h0V140.867c0-25.077-21.2-45.406-47.348-45.406h.009Z" transform="translate(-585.341 -79.646)"/><ellipse class="e" cx="26" cy="24.933" rx="26" ry="24.933" transform="translate(155.841 600.078)"/><path class="e" d="M661.706,490.267a4.9,4.9,0,0,0,0,9.758H871.848a4.9,4.9,0,0,0,0-9.758Z" transform="translate(-585.341 -265.84)"/><path class="e" d="M661.706,610.267a4.9,4.9,0,0,0,0,9.758H871.848a4.9,4.9,0,0,0,0-9.758Z" transform="translate(-585.341 -270.763)"/><path class="e" d="M661.706,520.794a4.9,4.9,0,0,0,0,9.758h90.425a4.9,4.9,0,0,0,0-9.758Z" transform="translate(-585.341 -267.092)"/><path class="e" d="M661.706,549.893a4.9,4.9,0,0,0,0,9.758H871.848a4.9,4.9,0,0,0,0-9.758Z" transform="translate(-585.341 -268.286)"/><path class="e" d="M661.706,580.42a4.9,4.9,0,0,0,0,9.758h90.425a4.9,4.9,0,0,0,0-9.758Z" transform="translate(-585.341 -269.538)"/></g></g></svg>